{
  "title": "Guardians Of The Galaxy 2014 720p HDCAM ENGLISH x264 Pimp4003",
  "uid": 10694287,
  "size": 1854863583,
  "categoryP": "video",
  "categoryS": "movies",
  "magnet": "?xt=urn:btih:4cf6d3ae531bb0f51342c6ed3b532aecf3bf6c47&amp;dn=Guardians+Of+The+Galaxy+2014+720p+HDCAM+ENGLISH+x264+Pimp4003&amp;tr=udp%3A%2F%2Ftracker.openbittorrent.com%3A80&amp;tr=udp%3A%2F%2Fopen.demonii.com%3A1337&amp;tr=udp%3A%2F%2Ftracker.coppersurfer.tk%3A6969&amp;tr=udp%3A%2F%2Fexodus.desync.com%3A6969",
  "seeders": 296,
  "leechers": 11,
  "uploader": "shawnmurthy",
  "files": -1,
  "time": 1407110843,
  "description": "[color=red][b]NOW THIS TOOK A LONG TIME FOR ME TO DO AND I HAD TO REMOVE THE OLD AUDIO AND THEN WORK ON THE ENGLISH AUDIO I HAD. THE VIDEO IS SAME AS MY SPANISH SOURCE EXCEPT I DID SOME WORK ON THE VIDEO BRIGHTENED THE CONTRAST, STOPPED THE FLICKERING AND ALSO THERE WAS SOME MOMENT DID WHAT I COULD TO MAKE IT BETTER. AUDIO WAS VERY LOW WHICH I NOTICED AND SO I MADE IT LOUDER, ALSO THERE WAS SOME ECHO WHICH HAD TO BE FIXED. NOW THE SYNC PART TOOK A WHILE. IT MIGHT BE OFF BY LIKE 3 SECONDS OR LESS. I DID THE BEST I COULD TO MAKE IT HAPPEN. IF YOU GUYS HAVE PROBLEMS JUST GO INTO VLC, SELECT TOOLS AND THEN CHOOSE TRACK SYNCHRONIZATION. THAT WILL FIX IT ALSO I WILL HAVE TSRIP WITH LINE AUDIO UP WITH IN THE NEXT COUPLE OF DAYS. .......ENJOY...PIMP4003 OUT[/b][/color]\n\nSOURCE-SPECTRE\n\n[IMG]http://i.imgur.com/Q7K4oJu.png[/IMG]\n\n[IMG]http://i.imgur.com/69uL5sU.jpg[/IMG]\n\n[URL=http://istoreimg.com/i/53dcab75daf82.html][IMG]http://istoreimg.com/upload/small/2014/08/02/53dcab75daf46.jpg[/IMG][/URL]\n\n[color=blue][b]SUPER FAST DOWNLOAD SPEEDS, REQUESTS, SCREENSHOTS, VIDEO INFO, SAMPLE AND FOR EXCLUSIVE RELEASES VISIT BELOW LINK[/b][/color]\n\nGuardians Of The Galaxy 2014 720p HDCAM ENGLISH x264 Pimp4003\n\nENJOY\n\nPIMP4003.....:)\n\nVideo\nID                                       : 2\nFormat                                   : AVC\nFormat/Info                              : Advanced Video Codec\nFormat profile                           : &lt;a class=&quot;__cf_email__&quot; href=&quot;/cdn-cgi/l/email-protection&quot; data-cfemail=&quot;31735042545d585f54717d021f01&quot;&gt;[email&amp;#160;protected]&lt;/a&gt;&lt;script cf-hash='f9e31' type=&quot;text/javascript&quot;&gt;\n/* &lt;![CDATA[ */!function(){try{var t=&quot;currentScript&quot;in document?document.currentScript:function(){for(var t=document.getElementsByTagName(&quot;script&quot;),e=t.length;e--;)if(t[e].getAttribute(&quot;cf-hash&quot;))return t[e]}();if(t&amp;&amp;t.previousSibling){var e,r,n,i,c=t.previousSibling,a=c.getAttribute(&quot;data-cfemail&quot;);if(a){for(e=&quot;&quot;,r=parseInt(a.substr(0,2),16),n=2;a.length-n;n+=2)i=parseInt(a.substr(n,2),16)^r,e+=String.fromCharCode(i);e=document.createTextNode(e),c.parentNode.replaceChild(e,c)}}}catch(u){}}();/* ]]&gt; */&lt;/script&gt;\nFormat settings, CABAC                   : No\nFormat settings, ReFrames                : 1 frame\nFormat settings, GOP                     : M=1, N=25\nMuxing mode                              : Container profile=&lt;a class=&quot;__cf_email__&quot; href=&quot;/cdn-cgi/l/email-protection&quot; data-cfemail=&quot;5e1c3f2d3b3237303b1e6a706f&quot;&gt;[email&amp;#160;protected]&lt;/a&gt;&lt;script cf-hash='f9e31' type=&quot;text/javascript&quot;&gt;\n/* &lt;![CDATA[ */!function(){try{var t=&quot;currentScript&quot;in document?document.currentScript:function(){for(var t=document.getElementsByTagName(&quot;script&quot;),e=t.length;e--;)if(t[e].getAttribute(&quot;cf-hash&quot;))return t[e]}();if(t&amp;&amp;t.previousSibling){var e,r,n,i,c=t.previousSibling,a=c.getAttribute(&quot;data-cfemail&quot;);if(a){for(e=&quot;&quot;,r=parseInt(a.substr(0,2),16),n=2;a.length-n;n+=2)i=parseInt(a.substr(n,2),16)^r,e+=String.fromCharCode(i);e=document.createTextNode(e),c.parentNode.replaceChild(e,c)}}}catch(u){}}();/* ]]&gt; */&lt;/script&gt;\nCodec ID                                 : avc1\nCodec ID/Info                            : Advanced Video Coding\nDuration                                 : 1h 53mn\nBit rate                                 : 2 090 Kbps\nWidth                                    : 1 280 pixels\nHeight                                   : 720 pixels\nDisplay aspect ratio                     : 16:9\nFrame rate mode                          : Constant\nFrame rate                               : 23.976 fps\nOriginal frame rate                      : 23.000 fps\nColor space                              : YUV\nChroma subsampling                       : 4:2:0\nBit depth                                : 8 bits\nScan type                                : Progressive\nBits/(Pixel*Frame)                       : 0.095\nStream size                              : 1.65 GiB (96%)\nWriting library                          : \nLanguage                                 : English\n\nAudio\nID                                       : 1\nFormat                                   : AAC\nFormat/Info                              : Advanced Audio Codec\nFormat profile                           : LC\nCodec ID                                 : 40\nDuration                                 : 1h 53mn\nBit rate mode                            : Constant\nBit rate                                 : 93.2 Kbps\nChannel(s)                               : 2 channels\nChannel positions                        : Front: L R\nSampling rate                            : 48.0 KHz\nCompression mode                         : Lossy\nStream size                              : 75.3 MiB (4%)\nLanguage                                 : English\n",
  "parsed": {
    "xt": "urn:btih:4cf6d3ae531bb0f51342c6ed3b532aecf3bf6c47",
    "dn": "Guardians Of The Galaxy 2014 720p HDCAM ENGLISH x264 Pimp4003",
    "tr": [
      "udp://exodus.desync.com:6969",
      "udp://open.demonii.com:1337",
      "udp://tracker.coppersurfer.tk:6969",
      "udp://tracker.openbittorrent.com:80"
    ],
    "infoHash": "4cf6d3ae531bb0f51342c6ed3b532aecf3bf6c47",
    "infoHashBuffer": {
      "type": "Buffer",
      "data": [
        76,
        246,
        211,
        174,
        83,
        27,
        176,
        245,
        19,
        66,
        198,
        237,
        59,
        83,
        42,
        236,
        243,
        191,
        108,
        71
      ]
    },
    "name": "Guardians Of The Galaxy 2014 720p HDCAM ENGLISH x264 Pimp4003",
    "announce": [
      "udp://exodus.desync.com:6969",
      "udp://open.demonii.com:1337",
      "udp://tracker.coppersurfer.tk:6969",
      "udp://tracker.openbittorrent.com:80"
    ],
    "urlList": []
  },
  "previous": 307,
  "peers": 37,
  "last_updated": "2016-12-25T00:32:07.075Z"
}